<?xml version="1.0" encoding="UTF-8" standalone="no"?>
<!DOCTYPE svg PUBLIC "-//W3C//DTD SVG 1.1//EN"
 "http://www.w3.org/Graphics/SVG/1.1/DTD/svg11.dtd">
<!-- Generated by graphviz version 2.43.0 (0)
 -->
<!-- Title: %3 Pages: 1 -->
<svg width="1997pt" height="548pt"
 viewBox="0.00 0.00 1996.50 548.00" xmlns="http://www.w3.org/2000/svg" xmlns:xlink="http://www.w3.org/1999/xlink">
<g id="graph0" class="graph" transform="scale(1 1) rotate(0) translate(4 544)">
<title>%3</title>
<polygon fill="white" stroke="transparent" points="-4,4 -4,-544 1992.5,-544 1992.5,4 -4,4"/>
<!-- [root] aws_eip.bastion_eip (expand) -->
<g id="node1" class="node">
<title>[root] aws_eip.bastion_eip (expand)</title>
<polygon fill="none" stroke="black" points="992.5,-396 834.5,-396 834.5,-360 992.5,-360 992.5,-396"/>
<text text-anchor="middle" x="913.5" y="-374.3" font-family="Times,serif" font-size="14.00">aws_eip.bastion_eip</text>
</g>
<!-- [root] aws_instance.bastion (expand) -->
<g id="node2" class="node">
<title>[root] aws_instance.bastion (expand)</title>
<polygon fill="none" stroke="black" points="1159.5,-324 991.5,-324 991.5,-288 1159.5,-288 1159.5,-324"/>
<text text-anchor="middle" x="1075.5" y="-302.3" font-family="Times,serif" font-size="14.00">aws_instance.bastion</text>
</g>
<!-- [root] aws_eip.bastion_eip (expand)&#45;&gt;[root] aws_instance.bastion (expand) -->
<g id="edge1" class="edge">
<title>[root] aws_eip.bastion_eip (expand)&#45;&gt;[root] aws_instance.bastion (expand)</title>
<path fill="none" stroke="black" d="M953.13,-359.88C975.28,-350.31 1003.06,-338.3 1026.56,-328.15"/>
<polygon fill="black" stroke="black" points="1028.21,-331.25 1036,-324.07 1025.43,-324.82 1028.21,-331.25"/>
</g>
<!-- [root] aws_key_pair.bastion_ssh_key (expand) -->
<g id="node4" class="node">
<title>[root] aws_key_pair.bastion_ssh_key (expand)</title>
<polygon fill="none" stroke="black" points="1762,-252 1533,-252 1533,-216 1762,-216 1762,-252"/>
<text text-anchor="middle" x="1647.5" y="-230.3" font-family="Times,serif" font-size="14.00">aws_key_pair.bastion_ssh_key</text>
</g>
<!-- [root] aws_instance.bastion (expand)&#45;&gt;[root] aws_key_pair.bastion_ssh_key (expand) -->
<g id="edge2" class="edge">
<title>[root] aws_instance.bastion (expand)&#45;&gt;[root] aws_key_pair.bastion_ssh_key (expand)</title>
<path fill="none" stroke="black" d="M1159.78,-295.5C1247.67,-285.49 1389.72,-269 1523,-252.05"/>
<polygon fill="black" stroke="black" points="1523.52,-255.51 1532.99,-250.78 1522.63,-248.57 1523.52,-255.51"/>
</g>
<!-- [root] aws_security_group.bastion_sg (expand) -->
<g id="node7" class="node">
<title>[root] aws_security_group.bastion_sg (expand)</title>
<polygon fill="none" stroke="black" points="760.5,-252 522.5,-252 522.5,-216 760.5,-216 760.5,-252"/>
<text text-anchor="middle" x="641.5" y="-230.3" font-family="Times,serif" font-size="14.00">aws_security_group.bastion_sg</text>
</g>
<!-- [root] aws_instance.bastion (expand)&#45;&gt;[root] aws_security_group.bastion_sg (expand) -->
<g id="edge3" class="edge">
<title>[root] aws_instance.bastion (expand)&#45;&gt;[root] aws_security_group.bastion_sg (expand)</title>
<path fill="none" stroke="black" d="M991.31,-291.42C924.68,-280.67 830.91,-265.55 757.23,-253.67"/>
<polygon fill="black" stroke="black" points="757.4,-250.15 746.97,-252.01 756.28,-257.06 757.4,-250.15"/>
</g>
<!-- [root] aws_subnet.aws_net (expand) -->
<g id="node8" class="node">
<title>[root] aws_subnet.aws_net (expand)</title>
<polygon fill="none" stroke="black" points="214.5,-252 52.5,-252 52.5,-216 214.5,-216 214.5,-252"/>
<text text-anchor="middle" x="133.5" y="-230.3" font-family="Times,serif" font-size="14.00">aws_subnet.aws_net</text>
</g>
<!-- [root] aws_instance.bastion (expand)&#45;&gt;[root] aws_subnet.aws_net (expand) -->
<g id="edge4" class="edge">
<title>[root] aws_instance.bastion (expand)&#45;&gt;[root] aws_subnet.aws_net (expand)</title>
<path fill="none" stroke="black" d="M991.43,-303.24C840,-299.31 511.28,-287.3 225.03,-252.1"/>
<polygon fill="black" stroke="black" points="225.22,-248.6 214.86,-250.84 224.36,-255.54 225.22,-248.6"/>
</g>
<!-- [root] var.aws_ami -->
<g id="node13" class="node">
<title>[root] var.aws_ami</title>
<polygon fill="none" stroke="black" points="1508.5,-252 1410.5,-252 1410.5,-216 1514.5,-216 1514.5,-246 1508.5,-252"/>
<polyline fill="none" stroke="black" points="1508.5,-252 1508.5,-246 "/>
<polyline fill="none" stroke="black" points="1514.5,-246 1508.5,-246 "/>
<text text-anchor="middle" x="1462.5" y="-230.3" font-family="Times,serif" font-size="14.00">var.aws_ami</text>
</g>
<!-- [root] aws_instance.bastion (expand)&#45;&gt;[root] var.aws_ami -->
<g id="edge5" class="edge">
<title>[root] aws_instance.bastion (expand)&#45;&gt;[root] var.aws_ami</title>
<path fill="none" stroke="black" d="M1159.74,-293.92C1223.46,-284.93 1313.25,-270.97 1400.55,-252.09"/>
<polygon fill="black" stroke="black" points="1401.33,-255.5 1410.35,-249.94 1399.83,-248.66 1401.33,-255.5"/>
</g>
<!-- [root] var.aws_bastion_private_ip -->
<g id="node15" class="node">
<title>[root] var.aws_bastion_private_ip</title>
<polygon fill="none" stroke="black" points="1982.5,-252 1780.5,-252 1780.5,-216 1988.5,-216 1988.5,-246 1982.5,-252"/>
<polyline fill="none" stroke="black" points="1982.5,-252 1982.5,-246 "/>
<polyline fill="none" stroke="black" points="1988.5,-246 1982.5,-246 "/>
<text text-anchor="middle" x="1884.5" y="-230.3" font-family="Times,serif" font-size="14.00">var.aws_bastion_private_ip</text>
</g>
<!-- [root] aws_instance.bastion (expand)&#45;&gt;[root] var.aws_bastion_private_ip -->
<g id="edge6" class="edge">
<title>[root] aws_instance.bastion (expand)&#45;&gt;[root] var.aws_bastion_private_ip</title>
<path fill="none" stroke="black" d="M1159.52,-300.6C1288.61,-293.39 1543.68,-277.39 1770.39,-252.08"/>
<polygon fill="black" stroke="black" points="1770.93,-255.54 1780.48,-250.94 1770.15,-248.58 1770.93,-255.54"/>
</g>
<!-- [root] var.aws_instance_size -->
<g id="node16" class="node">
<title>[root] var.aws_instance_size</title>
<polygon fill="none" stroke="black" points="944.5,-252 778.5,-252 778.5,-216 950.5,-216 950.5,-246 944.5,-252"/>
<polyline fill="none" stroke="black" points="944.5,-252 944.5,-246 "/>
<polyline fill="none" stroke="black" points="950.5,-246 944.5,-246 "/>
<text text-anchor="middle" x="864.5" y="-230.3" font-family="Times,serif" font-size="14.00">var.aws_instance_size</text>
</g>
<!-- [root] aws_instance.bastion (expand)&#45;&gt;[root] var.aws_instance_size -->
<g id="edge7" class="edge">
<title>[root] aws_instance.bastion (expand)&#45;&gt;[root] var.aws_instance_size</title>
<path fill="none" stroke="black" d="M1024.15,-287.97C994.54,-278.14 957.13,-265.73 925.96,-255.39"/>
<polygon fill="black" stroke="black" points="926.67,-251.94 916.08,-252.11 924.47,-258.58 926.67,-251.94"/>
</g>
<!-- [root] var.aws_instance_user_data -->
<g id="node17" class="node">
<title>[root] var.aws_instance_user_data</title>
<polygon fill="none" stroke="black" points="1176.5,-252 968.5,-252 968.5,-216 1182.5,-216 1182.5,-246 1176.5,-252"/>
<polyline fill="none" stroke="black" points="1176.5,-252 1176.5,-246 "/>
<polyline fill="none" stroke="black" points="1182.5,-246 1176.5,-246 "/>
<text text-anchor="middle" x="1075.5" y="-230.3" font-family="Times,serif" font-size="14.00">var.aws_instance_user_data</text>
</g>
<!-- [root] aws_instance.bastion (expand)&#45;&gt;[root] var.aws_instance_user_data -->
<g id="edge8" class="edge">
<title>[root] aws_instance.bastion (expand)&#45;&gt;[root] var.aws_instance_user_data</title>
<path fill="none" stroke="black" d="M1075.5,-287.7C1075.5,-279.98 1075.5,-270.71 1075.5,-262.11"/>
<polygon fill="black" stroke="black" points="1079,-262.1 1075.5,-252.1 1072,-262.1 1079,-262.1"/>
</g>
<!-- [root] var.aws_ssh_private_key -->
<g id="node21" class="node">
<title>[root] var.aws_ssh_private_key</title>
<polygon fill="none" stroke="black" points="1386,-252 1201,-252 1201,-216 1392,-216 1392,-246 1386,-252"/>
<polyline fill="none" stroke="black" points="1386,-252 1386,-246 "/>
<polyline fill="none" stroke="black" points="1392,-246 1386,-246 "/>
<text text-anchor="middle" x="1296.5" y="-230.3" font-family="Times,serif" font-size="14.00">var.aws_ssh_private_key</text>
</g>
<!-- [root] aws_instance.bastion (expand)&#45;&gt;[root] var.aws_ssh_private_key -->
<g id="edge9" class="edge">
<title>[root] aws_instance.bastion (expand)&#45;&gt;[root] var.aws_ssh_private_key</title>
<path fill="none" stroke="black" d="M1129.28,-287.97C1160.43,-278.1 1199.82,-265.62 1232.55,-255.25"/>
<polygon fill="black" stroke="black" points="1234,-258.47 1242.48,-252.11 1231.89,-251.79 1234,-258.47"/>
</g>
<!-- [root] aws_internet_gateway.aws_gateway (expand) -->
<g id="node3" class="node">
<title>[root] aws_internet_gateway.aws_gateway (expand)</title>
<polygon fill="none" stroke="black" points="504.5,-252 232.5,-252 232.5,-216 504.5,-216 504.5,-252"/>
<text text-anchor="middle" x="368.5" y="-230.3" font-family="Times,serif" font-size="14.00">aws_internet_gateway.aws_gateway</text>
</g>
<!-- [root] aws_vpc.aws_vpc (expand) -->
<g id="node9" class="node">
<title>[root] aws_vpc.aws_vpc (expand)</title>
<polygon fill="none" stroke="black" points="575.5,-180 435.5,-180 435.5,-144 575.5,-144 575.5,-180"/>
<text text-anchor="middle" x="505.5" y="-158.3" font-family="Times,serif" font-size="14.00">aws_vpc.aws_vpc</text>
</g>
<!-- [root] aws_internet_gateway.aws_gateway (expand)&#45;&gt;[root] aws_vpc.aws_vpc (expand) -->
<g id="edge10" class="edge">
<title>[root] aws_internet_gateway.aws_gateway (expand)&#45;&gt;[root] aws_vpc.aws_vpc (expand)</title>
<path fill="none" stroke="black" d="M402.01,-215.88C420.34,-206.51 443.24,-194.81 462.83,-184.8"/>
<polygon fill="black" stroke="black" points="464.54,-187.86 471.86,-180.19 461.36,-181.62 464.54,-187.86"/>
</g>
<!-- [root] provider[&quot;registry.terraform.io/hashicorp/aws&quot;] -->
<g id="node11" class="node">
<title>[root] provider[&quot;registry.terraform.io/hashicorp/aws&quot;]</title>
<polygon fill="none" stroke="black" points="1282.5,-108 957.24,-90 1282.5,-72 1607.76,-90 1282.5,-108"/>
<text text-anchor="middle" x="1282.5" y="-86.3" font-family="Times,serif" font-size="14.00">provider[&quot;registry.terraform.io/hashicorp/aws&quot;]</text>
</g>
<!-- [root] aws_key_pair.bastion_ssh_key (expand)&#45;&gt;[root] provider[&quot;registry.terraform.io/hashicorp/aws&quot;] -->
<g id="edge11" class="edge">
<title>[root] aws_key_pair.bastion_ssh_key (expand)&#45;&gt;[root] provider[&quot;registry.terraform.io/hashicorp/aws&quot;]</title>
<path fill="none" stroke="black" d="M1649.12,-215.86C1650.01,-195.63 1648.04,-162.43 1628.5,-144 1603.17,-120.1 1531.17,-106.98 1459.37,-99.78"/>
<polygon fill="black" stroke="black" points="1459.53,-96.28 1449.24,-98.8 1458.86,-103.24 1459.53,-96.28"/>
</g>
<!-- [root] var.aws_ssh_public_key -->
<g id="node22" class="node">
<title>[root] var.aws_ssh_public_key</title>
<polygon fill="none" stroke="black" points="1613,-180 1436,-180 1436,-144 1619,-144 1619,-174 1613,-180"/>
<polyline fill="none" stroke="black" points="1613,-180 1613,-174 "/>
<polyline fill="none" stroke="black" points="1619,-174 1613,-174 "/>
<text text-anchor="middle" x="1527.5" y="-158.3" font-family="Times,serif" font-size="14.00">var.aws_ssh_public_key</text>
</g>
<!-- [root] aws_key_pair.bastion_ssh_key (expand)&#45;&gt;[root] var.aws_ssh_public_key -->
<g id="edge12" class="edge">
<title>[root] aws_key_pair.bastion_ssh_key (expand)&#45;&gt;[root] var.aws_ssh_public_key</title>
<path fill="none" stroke="black" d="M1618.14,-215.88C1602.45,-206.72 1582.94,-195.34 1566.05,-185.48"/>
<polygon fill="black" stroke="black" points="1567.37,-182.21 1556.97,-180.19 1563.84,-188.25 1567.37,-182.21"/>
</g>
<!-- [root] aws_route_table.public_routes (expand) -->
<g id="node5" class="node">
<title>[root] aws_route_table.public_routes (expand)</title>
<polygon fill="none" stroke="black" points="485,-324 252,-324 252,-288 485,-288 485,-324"/>
<text text-anchor="middle" x="368.5" y="-302.3" font-family="Times,serif" font-size="14.00">aws_route_table.public_routes</text>
</g>
<!-- [root] aws_route_table.public_routes (expand)&#45;&gt;[root] aws_internet_gateway.aws_gateway (expand) -->
<g id="edge13" class="edge">
<title>[root] aws_route_table.public_routes (expand)&#45;&gt;[root] aws_internet_gateway.aws_gateway (expand)</title>
<path fill="none" stroke="black" d="M368.5,-287.7C368.5,-279.98 368.5,-270.71 368.5,-262.11"/>
<polygon fill="black" stroke="black" points="372,-262.1 368.5,-252.1 365,-262.1 372,-262.1"/>
</g>
<!-- [root] aws_route_table_association.aws_net_routes (expand) -->
<g id="node6" class="node">
<title>[root] aws_route_table_association.aws_net_routes (expand)</title>
<polygon fill="none" stroke="black" points="535,-396 202,-396 202,-360 535,-360 535,-396"/>
<text text-anchor="middle" x="368.5" y="-374.3" font-family="Times,serif" font-size="14.00">aws_route_table_association.aws_net_routes</text>
</g>
<!-- [root] aws_route_table_association.aws_net_routes (expand)&#45;&gt;[root] aws_route_table.public_routes (expand) -->
<g id="edge14" class="edge">
<title>[root] aws_route_table_association.aws_net_routes (expand)&#45;&gt;[root] aws_route_table.public_routes (expand)</title>
<path fill="none" stroke="black" d="M368.5,-359.7C368.5,-351.98 368.5,-342.71 368.5,-334.11"/>
<polygon fill="black" stroke="black" points="372,-334.1 368.5,-324.1 365,-334.1 372,-334.1"/>
</g>
<!-- [root] aws_route_table_association.aws_net_routes (expand)&#45;&gt;[root] aws_subnet.aws_net (expand) -->
<g id="edge15" class="edge">
<title>[root] aws_route_table_association.aws_net_routes (expand)&#45;&gt;[root] aws_subnet.aws_net (expand)</title>
<path fill="none" stroke="black" d="M319.05,-359.98C295.14,-350.82 266.5,-338.43 242.5,-324 211.5,-305.36 179.89,-278.5 158.75,-259.17"/>
<polygon fill="black" stroke="black" points="160.9,-256.39 151.19,-252.17 156.14,-261.53 160.9,-256.39"/>
</g>
<!-- [root] aws_security_group.bastion_sg (expand)&#45;&gt;[root] aws_vpc.aws_vpc (expand) -->
<g id="edge16" class="edge">
<title>[root] aws_security_group.bastion_sg (expand)&#45;&gt;[root] aws_vpc.aws_vpc (expand)</title>
<path fill="none" stroke="black" d="M608.23,-215.88C590.04,-206.51 567.31,-194.81 547.86,-184.8"/>
<polygon fill="black" stroke="black" points="549.39,-181.65 538.9,-180.19 546.19,-187.88 549.39,-181.65"/>
</g>
<!-- [root] aws_subnet.aws_net (expand)&#45;&gt;[root] aws_vpc.aws_vpc (expand) -->
<g id="edge17" class="edge">
<title>[root] aws_subnet.aws_net (expand)&#45;&gt;[root] aws_vpc.aws_vpc (expand)</title>
<path fill="none" stroke="black" d="M214.93,-217.61C217.83,-217.07 220.69,-216.53 223.5,-216 291.62,-203.17 369,-188.63 425.45,-178.03"/>
<polygon fill="black" stroke="black" points="426.2,-181.44 435.38,-176.16 424.91,-174.57 426.2,-181.44"/>
</g>
<!-- [root] var.aws_az -->
<g id="node14" class="node">
<title>[root] var.aws_az</title>
<polygon fill="none" stroke="black" points="240,-180 153,-180 153,-144 246,-144 246,-174 240,-180"/>
<polyline fill="none" stroke="black" points="240,-180 240,-174 "/>
<polyline fill="none" stroke="black" points="246,-174 240,-174 "/>
<text text-anchor="middle" x="199.5" y="-158.3" font-family="Times,serif" font-size="14.00">var.aws_az</text>
</g>
<!-- [root] aws_subnet.aws_net (expand)&#45;&gt;[root] var.aws_az -->
<g id="edge18" class="edge">
<title>[root] aws_subnet.aws_net (expand)&#45;&gt;[root] var.aws_az</title>
<path fill="none" stroke="black" d="M149.81,-215.7C157.81,-207.22 167.57,-196.86 176.32,-187.58"/>
<polygon fill="black" stroke="black" points="179.06,-189.78 183.37,-180.1 173.97,-184.98 179.06,-189.78"/>
</g>
<!-- [root] var.aws_net_cidr -->
<g id="node18" class="node">
<title>[root] var.aws_net_cidr</title>
<polygon fill="none" stroke="black" points="129,-180 0,-180 0,-144 135,-144 135,-174 129,-180"/>
<polyline fill="none" stroke="black" points="129,-180 129,-174 "/>
<polyline fill="none" stroke="black" points="135,-174 129,-174 "/>
<text text-anchor="middle" x="67.5" y="-158.3" font-family="Times,serif" font-size="14.00">var.aws_net_cidr</text>
</g>
<!-- [root] aws_subnet.aws_net (expand)&#45;&gt;[root] var.aws_net_cidr -->
<g id="edge19" class="edge">
<title>[root] aws_subnet.aws_net (expand)&#45;&gt;[root] var.aws_net_cidr</title>
<path fill="none" stroke="black" d="M117.19,-215.7C109.19,-207.22 99.43,-196.86 90.68,-187.58"/>
<polygon fill="black" stroke="black" points="93.03,-184.98 83.63,-180.1 87.94,-189.78 93.03,-184.98"/>
</g>
<!-- [root] aws_vpc.aws_vpc (expand)&#45;&gt;[root] provider[&quot;registry.terraform.io/hashicorp/aws&quot;] -->
<g id="edge20" class="edge">
<title>[root] aws_vpc.aws_vpc (expand)&#45;&gt;[root] provider[&quot;registry.terraform.io/hashicorp/aws&quot;]</title>
<path fill="none" stroke="black" d="M575.82,-154.66C706.82,-142.86 989.85,-117.36 1155.23,-102.47"/>
<polygon fill="black" stroke="black" points="1155.81,-105.93 1165.46,-101.54 1155.19,-98.96 1155.81,-105.93"/>
</g>
<!-- [root] var.aws_vpc_cidr -->
<g id="node23" class="node">
<title>[root] var.aws_vpc_cidr</title>
<polygon fill="none" stroke="black" points="568,-108 437,-108 437,-72 574,-72 574,-102 568,-108"/>
<polyline fill="none" stroke="black" points="568,-108 568,-102 "/>
<polyline fill="none" stroke="black" points="574,-102 568,-102 "/>
<text text-anchor="middle" x="505.5" y="-86.3" font-family="Times,serif" font-size="14.00">var.aws_vpc_cidr</text>
</g>
<!-- [root] aws_vpc.aws_vpc (expand)&#45;&gt;[root] var.aws_vpc_cidr -->
<g id="edge21" class="edge">
<title>[root] aws_vpc.aws_vpc (expand)&#45;&gt;[root] var.aws_vpc_cidr</title>
<path fill="none" stroke="black" d="M505.5,-143.7C505.5,-135.98 505.5,-126.71 505.5,-118.11"/>
<polygon fill="black" stroke="black" points="509,-118.1 505.5,-108.1 502,-118.1 509,-118.1"/>
</g>
<!-- [root] output.bastion_eip -->
<g id="node10" class="node">
<title>[root] output.bastion_eip</title>
<polygon fill="none" stroke="black" points="982,-468 839,-468 839,-432 988,-432 988,-462 982,-468"/>
<polyline fill="none" stroke="black" points="982,-468 982,-462 "/>
<polyline fill="none" stroke="black" points="988,-462 982,-462 "/>
<text text-anchor="middle" x="913.5" y="-446.3" font-family="Times,serif" font-size="14.00">output.bastion_eip</text>
</g>
<!-- [root] output.bastion_eip&#45;&gt;[root] aws_eip.bastion_eip (expand) -->
<g id="edge22" class="edge">
<title>[root] output.bastion_eip&#45;&gt;[root] aws_eip.bastion_eip (expand)</title>
<path fill="none" stroke="black" d="M913.5,-431.7C913.5,-423.98 913.5,-414.71 913.5,-406.11"/>
<polygon fill="black" stroke="black" points="917,-406.1 913.5,-396.1 910,-406.1 917,-406.1"/>
</g>
<!-- [root] var.aws_access_key -->
<g id="node12" class="node">
<title>[root] var.aws_access_key</title>
<polygon fill="none" stroke="black" points="1197,-36 1048,-36 1048,0 1203,0 1203,-30 1197,-36"/>
<polyline fill="none" stroke="black" points="1197,-36 1197,-30 "/>
<polyline fill="none" stroke="black" points="1203,-30 1197,-30 "/>
<text text-anchor="middle" x="1125.5" y="-14.3" font-family="Times,serif" font-size="14.00">var.aws_access_key</text>
</g>
<!-- [root] provider[&quot;registry.terraform.io/hashicorp/aws&quot;]&#45;&gt;[root] var.aws_access_key -->
<g id="edge25" class="edge">
<title>[root] provider[&quot;registry.terraform.io/hashicorp/aws&quot;]&#45;&gt;[root] var.aws_access_key</title>
<path fill="none" stroke="black" d="M1248.43,-73.81C1226.38,-63.98 1197.35,-51.03 1173.04,-40.19"/>
<polygon fill="black" stroke="black" points="1174.19,-36.88 1163.63,-36 1171.34,-43.27 1174.19,-36.88"/>
</g>
<!-- [root] var.aws_region -->
<g id="node19" class="node">
<title>[root] var.aws_region</title>
<polygon fill="none" stroke="black" points="1338,-36 1221,-36 1221,0 1344,0 1344,-30 1338,-36"/>
<polyline fill="none" stroke="black" points="1338,-36 1338,-30 "/>
<polyline fill="none" stroke="black" points="1344,-30 1338,-30 "/>
<text text-anchor="middle" x="1282.5" y="-14.3" font-family="Times,serif" font-size="14.00">var.aws_region</text>
</g>
<!-- [root] provider[&quot;registry.terraform.io/hashicorp/aws&quot;]&#45;&gt;[root] var.aws_region -->
<g id="edge26" class="edge">
<title>[root] provider[&quot;registry.terraform.io/hashicorp/aws&quot;]&#45;&gt;[root] var.aws_region</title>
<path fill="none" stroke="black" d="M1282.5,-71.7C1282.5,-63.98 1282.5,-54.71 1282.5,-46.11"/>
<polygon fill="black" stroke="black" points="1286,-46.1 1282.5,-36.1 1279,-46.1 1286,-46.1"/>
</g>
<!-- [root] var.aws_secret_key -->
<g id="node20" class="node">
<title>[root] var.aws_secret_key</title>
<polygon fill="none" stroke="black" points="1509,-36 1362,-36 1362,0 1515,0 1515,-30 1509,-36"/>
<polyline fill="none" stroke="black" points="1509,-36 1509,-30 "/>
<polyline fill="none" stroke="black" points="1515,-30 1509,-30 "/>
<text text-anchor="middle" x="1438.5" y="-14.3" font-family="Times,serif" font-size="14.00">var.aws_secret_key</text>
</g>
<!-- [root] provider[&quot;registry.terraform.io/hashicorp/aws&quot;]&#45;&gt;[root] var.aws_secret_key -->
<g id="edge27" class="edge">
<title>[root] provider[&quot;registry.terraform.io/hashicorp/aws&quot;]&#45;&gt;[root] var.aws_secret_key</title>
<path fill="none" stroke="black" d="M1316.35,-73.81C1338.26,-63.98 1367.11,-51.03 1391.27,-40.19"/>
<polygon fill="black" stroke="black" points="1392.92,-43.29 1400.61,-36 1390.05,-36.9 1392.92,-43.29"/>
</g>
<!-- [root] provider[&quot;registry.terraform.io/hashicorp/aws&quot;] (close) -->
<g id="node24" class="node">
<title>[root] provider[&quot;registry.terraform.io/hashicorp/aws&quot;] (close)</title>
<ellipse fill="none" stroke="black" cx="529.5" cy="-450" rx="291.65" ry="18"/>
<text text-anchor="middle" x="529.5" y="-446.3" font-family="Times,serif" font-size="14.00">[root] provider[&quot;registry.terraform.io/hashicorp/aws&quot;] (close)</text>
</g>
<!-- [root] provider[&quot;registry.terraform.io/hashicorp/aws&quot;] (close)&#45;&gt;[root] aws_eip.bastion_eip (expand) -->
<g id="edge23" class="edge">
<title>[root] provider[&quot;registry.terraform.io/hashicorp/aws&quot;] (close)&#45;&gt;[root] aws_eip.bastion_eip (expand)</title>
<path fill="none" stroke="black" d="M618.56,-432.76C680.37,-421.5 762.38,-406.55 824.24,-395.27"/>
<polygon fill="black" stroke="black" points="825.16,-398.66 834.37,-393.42 823.91,-391.77 825.16,-398.66"/>
</g>
<!-- [root] provider[&quot;registry.terraform.io/hashicorp/aws&quot;] (close)&#45;&gt;[root] aws_route_table_association.aws_net_routes (expand) -->
<g id="edge24" class="edge">
<title>[root] provider[&quot;registry.terraform.io/hashicorp/aws&quot;] (close)&#45;&gt;[root] aws_route_table_association.aws_net_routes (expand)</title>
<path fill="none" stroke="black" d="M490.53,-432.05C468.44,-422.45 440.62,-410.35 417.11,-400.14"/>
<polygon fill="black" stroke="black" points="418.24,-396.81 407.67,-396.03 415.45,-403.23 418.24,-396.81"/>
</g>
<!-- [root] root -->
<g id="node25" class="node">
<title>[root] root</title>
<ellipse fill="none" stroke="black" cx="721.5" cy="-522" rx="58.49" ry="18"/>
<text text-anchor="middle" x="721.5" y="-518.3" font-family="Times,serif" font-size="14.00">[root] root</text>
</g>
<!-- [root] root&#45;&gt;[root] output.bastion_eip -->
<g id="edge28" class="edge">
<title>[root] root&#45;&gt;[root] output.bastion_eip</title>
<path fill="none" stroke="black" d="M757.61,-507.83C785.57,-497.64 824.81,-483.33 856.93,-471.62"/>
<polygon fill="black" stroke="black" points="858.45,-474.8 866.65,-468.08 856.05,-468.22 858.45,-474.8"/>
</g>
<!-- [root] root&#45;&gt;[root] provider[&quot;registry.terraform.io/hashicorp/aws&quot;] (close) -->
<g id="edge29" class="edge">
<title>[root] root&#45;&gt;[root] provider[&quot;registry.terraform.io/hashicorp/aws&quot;] (close)</title>
<path fill="none" stroke="black" d="M685.39,-507.83C657.23,-497.57 617.63,-483.13 585.39,-471.38"/>
<polygon fill="black" stroke="black" points="586.24,-467.96 575.65,-467.82 583.84,-474.54 586.24,-467.96"/>
</g>
</g>
</svg>
