<?xml version="1.0" encoding="UTF-8" standalone="no"?>
<!DOCTYPE svg PUBLIC "-//W3C//DTD SVG 1.1//EN"
 "http://www.w3.org/Graphics/SVG/1.1/DTD/svg11.dtd">
<!-- Generated by graphviz version 2.43.0 (0)
 -->
<!-- Title: %3 Pages: 1 -->
<svg width="1764pt" height="620pt"
 viewBox="0.00 0.00 1764.00 620.00" xmlns="http://www.w3.org/2000/svg" xmlns:xlink="http://www.w3.org/1999/xlink">
<g id="graph0" class="graph" transform="scale(1 1) rotate(0) translate(4 616)">
<title>%3</title>
<polygon fill="white" stroke="transparent" points="-4,4 -4,-616 1760,-616 1760,4 -4,4"/>
<!-- [root] aws_eip.bastion_eip (expand) -->
<g id="node1" class="node">
<title>[root] aws_eip.bastion_eip (expand)</title>
<polygon fill="none" stroke="black" points="1044.5,-396 886.5,-396 886.5,-360 1044.5,-360 1044.5,-396"/>
<text text-anchor="middle" x="965.5" y="-374.3" font-family="Times,serif" font-size="14.00">aws_eip.bastion_eip</text>
</g>
<!-- [root] aws_instance.bastion (expand) -->
<g id="node2" class="node">
<title>[root] aws_instance.bastion (expand)</title>
<polygon fill="none" stroke="black" points="926.5,-324 758.5,-324 758.5,-288 926.5,-288 926.5,-324"/>
<text text-anchor="middle" x="842.5" y="-302.3" font-family="Times,serif" font-size="14.00">aws_instance.bastion</text>
</g>
<!-- [root] aws_eip.bastion_eip (expand)&#45;&gt;[root] aws_instance.bastion (expand) -->
<g id="edge1" class="edge">
<title>[root] aws_eip.bastion_eip (expand)&#45;&gt;[root] aws_instance.bastion (expand)</title>
<path fill="none" stroke="black" d="M935.41,-359.88C919.18,-350.64 898.96,-339.13 881.53,-329.21"/>
<polygon fill="black" stroke="black" points="883.13,-326.09 872.7,-324.19 879.66,-332.18 883.13,-326.09"/>
</g>
<!-- [root] aws_key_pair.bastion_ssh_key (expand) -->
<g id="node4" class="node">
<title>[root] aws_key_pair.bastion_ssh_key (expand)</title>
<polygon fill="none" stroke="black" points="229,-252 0,-252 0,-216 229,-216 229,-252"/>
<text text-anchor="middle" x="114.5" y="-230.3" font-family="Times,serif" font-size="14.00">aws_key_pair.bastion_ssh_key</text>
</g>
<!-- [root] aws_instance.bastion (expand)&#45;&gt;[root] aws_key_pair.bastion_ssh_key (expand) -->
<g id="edge2" class="edge">
<title>[root] aws_instance.bastion (expand)&#45;&gt;[root] aws_key_pair.bastion_ssh_key (expand)</title>
<path fill="none" stroke="black" d="M758.34,-298.92C643.51,-290.32 431.07,-273.39 239.31,-252.06"/>
<polygon fill="black" stroke="black" points="239.65,-248.58 229.32,-250.94 238.87,-255.53 239.65,-248.58"/>
</g>
<!-- [root] aws_security_group.bastion_sg (expand) -->
<g id="node7" class="node">
<title>[root] aws_security_group.bastion_sg (expand)</title>
<polygon fill="none" stroke="black" points="1233.5,-252 995.5,-252 995.5,-216 1233.5,-216 1233.5,-252"/>
<text text-anchor="middle" x="1114.5" y="-230.3" font-family="Times,serif" font-size="14.00">aws_security_group.bastion_sg</text>
</g>
<!-- [root] aws_instance.bastion (expand)&#45;&gt;[root] aws_security_group.bastion_sg (expand) -->
<g id="edge3" class="edge">
<title>[root] aws_instance.bastion (expand)&#45;&gt;[root] aws_security_group.bastion_sg (expand)</title>
<path fill="none" stroke="black" d="M908.69,-287.97C947.77,-277.91 997.4,-265.14 1038.13,-254.65"/>
<polygon fill="black" stroke="black" points="1039.2,-257.99 1048.01,-252.11 1037.46,-251.21 1039.2,-257.99"/>
</g>
<!-- [root] aws_subnet.aws_net (expand) -->
<g id="node8" class="node">
<title>[root] aws_subnet.aws_net (expand)</title>
<polygon fill="none" stroke="black" points="1703.5,-252 1541.5,-252 1541.5,-216 1703.5,-216 1703.5,-252"/>
<text text-anchor="middle" x="1622.5" y="-230.3" font-family="Times,serif" font-size="14.00">aws_subnet.aws_net</text>
</g>
<!-- [root] aws_instance.bastion (expand)&#45;&gt;[root] aws_subnet.aws_net (expand) -->
<g id="edge4" class="edge">
<title>[root] aws_instance.bastion (expand)&#45;&gt;[root] aws_subnet.aws_net (expand)</title>
<path fill="none" stroke="black" d="M926.72,-301.52C1055.11,-295.55 1307.6,-281.22 1531.18,-252.09"/>
<polygon fill="black" stroke="black" points="1531.67,-255.56 1541.13,-250.79 1530.76,-248.62 1531.67,-255.56"/>
</g>
<!-- [root] var.aws_ami -->
<g id="node13" class="node">
<title>[root] var.aws_ami</title>
<polygon fill="none" stroke="black" points="971.5,-252 873.5,-252 873.5,-216 977.5,-216 977.5,-246 971.5,-252"/>
<polyline fill="none" stroke="black" points="971.5,-252 971.5,-246 "/>
<polyline fill="none" stroke="black" points="977.5,-246 971.5,-246 "/>
<text text-anchor="middle" x="925.5" y="-230.3" font-family="Times,serif" font-size="14.00">var.aws_ami</text>
</g>
<!-- [root] aws_instance.bastion (expand)&#45;&gt;[root] var.aws_ami -->
<g id="edge5" class="edge">
<title>[root] aws_instance.bastion (expand)&#45;&gt;[root] var.aws_ami</title>
<path fill="none" stroke="black" d="M863.02,-287.7C873.37,-278.97 886.09,-268.24 897.34,-258.75"/>
<polygon fill="black" stroke="black" points="899.83,-261.23 905.22,-252.1 895.32,-255.88 899.83,-261.23"/>
</g>
<!-- [root] var.aws_bastion_private_ip -->
<g id="node15" class="node">
<title>[root] var.aws_bastion_private_ip</title>
<polygon fill="none" stroke="black" points="449.5,-252 247.5,-252 247.5,-216 455.5,-216 455.5,-246 449.5,-252"/>
<polyline fill="none" stroke="black" points="449.5,-252 449.5,-246 "/>
<polyline fill="none" stroke="black" points="455.5,-246 449.5,-246 "/>
<text text-anchor="middle" x="351.5" y="-230.3" font-family="Times,serif" font-size="14.00">var.aws_bastion_private_ip</text>
</g>
<!-- [root] aws_instance.bastion (expand)&#45;&gt;[root] var.aws_bastion_private_ip -->
<g id="edge6" class="edge">
<title>[root] aws_instance.bastion (expand)&#45;&gt;[root] var.aws_bastion_private_ip</title>
<path fill="none" stroke="black" d="M758.39,-293.45C684.09,-283.19 572.49,-267.65 465.55,-252.15"/>
<polygon fill="black" stroke="black" points="465.95,-248.67 455.55,-250.69 464.95,-255.59 465.95,-248.67"/>
</g>
<!-- [root] var.aws_instance_size -->
<g id="node16" class="node">
<title>[root] var.aws_instance_size</title>
<polygon fill="none" stroke="black" points="639.5,-252 473.5,-252 473.5,-216 645.5,-216 645.5,-246 639.5,-252"/>
<polyline fill="none" stroke="black" points="639.5,-252 639.5,-246 "/>
<polyline fill="none" stroke="black" points="645.5,-246 639.5,-246 "/>
<text text-anchor="middle" x="559.5" y="-230.3" font-family="Times,serif" font-size="14.00">var.aws_instance_size</text>
</g>
<!-- [root] aws_instance.bastion (expand)&#45;&gt;[root] var.aws_instance_size -->
<g id="edge7" class="edge">
<title>[root] aws_instance.bastion (expand)&#45;&gt;[root] var.aws_instance_size</title>
<path fill="none" stroke="black" d="M773.63,-287.97C732.8,-277.87 680.9,-265.03 638.42,-254.52"/>
<polygon fill="black" stroke="black" points="639.22,-251.11 628.68,-252.11 637.54,-257.91 639.22,-251.11"/>
</g>
<!-- [root] var.aws_ssh_private_key -->
<g id="node20" class="node">
<title>[root] var.aws_ssh_private_key</title>
<polygon fill="none" stroke="black" points="849,-252 664,-252 664,-216 855,-216 855,-246 849,-252"/>
<polyline fill="none" stroke="black" points="849,-252 849,-246 "/>
<polyline fill="none" stroke="black" points="855,-246 849,-246 "/>
<text text-anchor="middle" x="759.5" y="-230.3" font-family="Times,serif" font-size="14.00">var.aws_ssh_private_key</text>
</g>
<!-- [root] aws_instance.bastion (expand)&#45;&gt;[root] var.aws_ssh_private_key -->
<g id="edge8" class="edge">
<title>[root] aws_instance.bastion (expand)&#45;&gt;[root] var.aws_ssh_private_key</title>
<path fill="none" stroke="black" d="M821.98,-287.7C811.63,-278.97 798.91,-268.24 787.66,-258.75"/>
<polygon fill="black" stroke="black" points="789.68,-255.88 779.78,-252.1 785.17,-261.23 789.68,-255.88"/>
</g>
<!-- [root] aws_internet_gateway.aws_gateway (expand) -->
<g id="node3" class="node">
<title>[root] aws_internet_gateway.aws_gateway (expand)</title>
<polygon fill="none" stroke="black" points="1523.5,-252 1251.5,-252 1251.5,-216 1523.5,-216 1523.5,-252"/>
<text text-anchor="middle" x="1387.5" y="-230.3" font-family="Times,serif" font-size="14.00">aws_internet_gateway.aws_gateway</text>
</g>
<!-- [root] aws_vpc.aws_vpc (expand) -->
<g id="node9" class="node">
<title>[root] aws_vpc.aws_vpc (expand)</title>
<polygon fill="none" stroke="black" points="1304.5,-180 1164.5,-180 1164.5,-144 1304.5,-144 1304.5,-180"/>
<text text-anchor="middle" x="1234.5" y="-158.3" font-family="Times,serif" font-size="14.00">aws_vpc.aws_vpc</text>
</g>
<!-- [root] aws_internet_gateway.aws_gateway (expand)&#45;&gt;[root] aws_vpc.aws_vpc (expand) -->
<g id="edge9" class="edge">
<title>[root] aws_internet_gateway.aws_gateway (expand)&#45;&gt;[root] aws_vpc.aws_vpc (expand)</title>
<path fill="none" stroke="black" d="M1350.07,-215.88C1329.25,-206.35 1303.15,-194.41 1281.02,-184.28"/>
<polygon fill="black" stroke="black" points="1282.36,-181.05 1271.81,-180.07 1279.44,-187.41 1282.36,-181.05"/>
</g>
<!-- [root] provider[&quot;registry.terraform.io/hashicorp/aws&quot;] -->
<g id="node11" class="node">
<title>[root] provider[&quot;registry.terraform.io/hashicorp/aws&quot;]</title>
<polygon fill="none" stroke="black" points="528.5,-108 203.24,-90 528.5,-72 853.76,-90 528.5,-108"/>
<text text-anchor="middle" x="528.5" y="-86.3" font-family="Times,serif" font-size="14.00">provider[&quot;registry.terraform.io/hashicorp/aws&quot;]</text>
</g>
<!-- [root] aws_key_pair.bastion_ssh_key (expand)&#45;&gt;[root] provider[&quot;registry.terraform.io/hashicorp/aws&quot;] -->
<g id="edge10" class="edge">
<title>[root] aws_key_pair.bastion_ssh_key (expand)&#45;&gt;[root] provider[&quot;registry.terraform.io/hashicorp/aws&quot;]</title>
<path fill="none" stroke="black" d="M112.82,-215.79C111.88,-195.51 113.79,-162.25 133.5,-144 161.53,-118.05 238.84,-104.63 317.73,-97.75"/>
<polygon fill="black" stroke="black" points="318.18,-101.22 327.85,-96.9 317.59,-94.25 318.18,-101.22"/>
</g>
<!-- [root] var.aws_ssh_public_key -->
<g id="node21" class="node">
<title>[root] var.aws_ssh_public_key</title>
<polygon fill="none" stroke="black" points="320,-180 143,-180 143,-144 326,-144 326,-174 320,-180"/>
<polyline fill="none" stroke="black" points="320,-180 320,-174 "/>
<polyline fill="none" stroke="black" points="326,-174 320,-174 "/>
<text text-anchor="middle" x="234.5" y="-158.3" font-family="Times,serif" font-size="14.00">var.aws_ssh_public_key</text>
</g>
<!-- [root] aws_key_pair.bastion_ssh_key (expand)&#45;&gt;[root] var.aws_ssh_public_key -->
<g id="edge11" class="edge">
<title>[root] aws_key_pair.bastion_ssh_key (expand)&#45;&gt;[root] var.aws_ssh_public_key</title>
<path fill="none" stroke="black" d="M143.86,-215.88C159.55,-206.72 179.06,-195.34 195.95,-185.48"/>
<polygon fill="black" stroke="black" points="198.16,-188.25 205.03,-180.19 194.63,-182.21 198.16,-188.25"/>
</g>
<!-- [root] aws_route_table.public_routes (expand) -->
<g id="node5" class="node">
<title>[root] aws_route_table.public_routes (expand)</title>
<polygon fill="none" stroke="black" points="1504,-324 1271,-324 1271,-288 1504,-288 1504,-324"/>
<text text-anchor="middle" x="1387.5" y="-302.3" font-family="Times,serif" font-size="14.00">aws_route_table.public_routes</text>
</g>
<!-- [root] aws_route_table.public_routes (expand)&#45;&gt;[root] aws_internet_gateway.aws_gateway (expand) -->
<g id="edge12" class="edge">
<title>[root] aws_route_table.public_routes (expand)&#45;&gt;[root] aws_internet_gateway.aws_gateway (expand)</title>
<path fill="none" stroke="black" d="M1387.5,-287.7C1387.5,-279.98 1387.5,-270.71 1387.5,-262.11"/>
<polygon fill="black" stroke="black" points="1391,-262.1 1387.5,-252.1 1384,-262.1 1391,-262.1"/>
</g>
<!-- [root] aws_route_table_association.aws_net_routes (expand) -->
<g id="node6" class="node">
<title>[root] aws_route_table_association.aws_net_routes (expand)</title>
<polygon fill="none" stroke="black" points="1554,-396 1221,-396 1221,-360 1554,-360 1554,-396"/>
<text text-anchor="middle" x="1387.5" y="-374.3" font-family="Times,serif" font-size="14.00">aws_route_table_association.aws_net_routes</text>
</g>
<!-- [root] aws_route_table_association.aws_net_routes (expand)&#45;&gt;[root] aws_route_table.public_routes (expand) -->
<g id="edge13" class="edge">
<title>[root] aws_route_table_association.aws_net_routes (expand)&#45;&gt;[root] aws_route_table.public_routes (expand)</title>
<path fill="none" stroke="black" d="M1387.5,-359.7C1387.5,-351.98 1387.5,-342.71 1387.5,-334.11"/>
<polygon fill="black" stroke="black" points="1391,-334.1 1387.5,-324.1 1384,-334.1 1391,-334.1"/>
</g>
<!-- [root] aws_route_table_association.aws_net_routes (expand)&#45;&gt;[root] aws_subnet.aws_net (expand) -->
<g id="edge14" class="edge">
<title>[root] aws_route_table_association.aws_net_routes (expand)&#45;&gt;[root] aws_subnet.aws_net (expand)</title>
<path fill="none" stroke="black" d="M1436.95,-359.98C1460.86,-350.82 1489.5,-338.43 1513.5,-324 1544.5,-305.36 1576.11,-278.5 1597.25,-259.17"/>
<polygon fill="black" stroke="black" points="1599.86,-261.53 1604.81,-252.17 1595.1,-256.39 1599.86,-261.53"/>
</g>
<!-- [root] aws_security_group.bastion_sg (expand)&#45;&gt;[root] aws_vpc.aws_vpc (expand) -->
<g id="edge15" class="edge">
<title>[root] aws_security_group.bastion_sg (expand)&#45;&gt;[root] aws_vpc.aws_vpc (expand)</title>
<path fill="none" stroke="black" d="M1143.86,-215.88C1159.55,-206.72 1179.06,-195.34 1195.95,-185.48"/>
<polygon fill="black" stroke="black" points="1198.16,-188.25 1205.03,-180.19 1194.63,-182.21 1198.16,-188.25"/>
</g>
<!-- [root] aws_subnet.aws_net (expand)&#45;&gt;[root] aws_vpc.aws_vpc (expand) -->
<g id="edge16" class="edge">
<title>[root] aws_subnet.aws_net (expand)&#45;&gt;[root] aws_vpc.aws_vpc (expand)</title>
<path fill="none" stroke="black" d="M1541.07,-217.58C1538.18,-217.04 1535.32,-216.52 1532.5,-216 1458.84,-202.49 1374.85,-187.6 1314.85,-177.05"/>
<polygon fill="black" stroke="black" points="1315.14,-173.55 1304.68,-175.26 1313.93,-180.44 1315.14,-173.55"/>
</g>
<!-- [root] var.aws_az -->
<g id="node14" class="node">
<title>[root] var.aws_az</title>
<polygon fill="none" stroke="black" points="1597,-180 1510,-180 1510,-144 1603,-144 1603,-174 1597,-180"/>
<polyline fill="none" stroke="black" points="1597,-180 1597,-174 "/>
<polyline fill="none" stroke="black" points="1603,-174 1597,-174 "/>
<text text-anchor="middle" x="1556.5" y="-158.3" font-family="Times,serif" font-size="14.00">var.aws_az</text>
</g>
<!-- [root] aws_subnet.aws_net (expand)&#45;&gt;[root] var.aws_az -->
<g id="edge17" class="edge">
<title>[root] aws_subnet.aws_net (expand)&#45;&gt;[root] var.aws_az</title>
<path fill="none" stroke="black" d="M1606.19,-215.7C1598.19,-207.22 1588.43,-196.86 1579.68,-187.58"/>
<polygon fill="black" stroke="black" points="1582.03,-184.98 1572.63,-180.1 1576.94,-189.78 1582.03,-184.98"/>
</g>
<!-- [root] var.aws_net_cidr -->
<g id="node17" class="node">
<title>[root] var.aws_net_cidr</title>
<polygon fill="none" stroke="black" points="1750,-180 1621,-180 1621,-144 1756,-144 1756,-174 1750,-180"/>
<polyline fill="none" stroke="black" points="1750,-180 1750,-174 "/>
<polyline fill="none" stroke="black" points="1756,-174 1750,-174 "/>
<text text-anchor="middle" x="1688.5" y="-158.3" font-family="Times,serif" font-size="14.00">var.aws_net_cidr</text>
</g>
<!-- [root] aws_subnet.aws_net (expand)&#45;&gt;[root] var.aws_net_cidr -->
<g id="edge18" class="edge">
<title>[root] aws_subnet.aws_net (expand)&#45;&gt;[root] var.aws_net_cidr</title>
<path fill="none" stroke="black" d="M1638.81,-215.7C1646.81,-207.22 1656.57,-196.86 1665.32,-187.58"/>
<polygon fill="black" stroke="black" points="1668.06,-189.78 1672.37,-180.1 1662.97,-184.98 1668.06,-189.78"/>
</g>
<!-- [root] aws_vpc.aws_vpc (expand)&#45;&gt;[root] provider[&quot;registry.terraform.io/hashicorp/aws&quot;] -->
<g id="edge19" class="edge">
<title>[root] aws_vpc.aws_vpc (expand)&#45;&gt;[root] provider[&quot;registry.terraform.io/hashicorp/aws&quot;]</title>
<path fill="none" stroke="black" d="M1164.22,-154.03C1043.87,-142.1 796.98,-117.62 648.78,-102.93"/>
<polygon fill="black" stroke="black" points="649.02,-99.43 638.73,-101.93 648.33,-106.4 649.02,-99.43"/>
</g>
<!-- [root] var.aws_vpc_cidr -->
<g id="node22" class="node">
<title>[root] var.aws_vpc_cidr</title>
<polygon fill="none" stroke="black" points="1297,-108 1166,-108 1166,-72 1303,-72 1303,-102 1297,-108"/>
<polyline fill="none" stroke="black" points="1297,-108 1297,-102 "/>
<polyline fill="none" stroke="black" points="1303,-102 1297,-102 "/>
<text text-anchor="middle" x="1234.5" y="-86.3" font-family="Times,serif" font-size="14.00">var.aws_vpc_cidr</text>
</g>
<!-- [root] aws_vpc.aws_vpc (expand)&#45;&gt;[root] var.aws_vpc_cidr -->
<g id="edge20" class="edge">
<title>[root] aws_vpc.aws_vpc (expand)&#45;&gt;[root] var.aws_vpc_cidr</title>
<path fill="none" stroke="black" d="M1234.5,-143.7C1234.5,-135.98 1234.5,-126.71 1234.5,-118.11"/>
<polygon fill="black" stroke="black" points="1238,-118.1 1234.5,-108.1 1231,-118.1 1238,-118.1"/>
</g>
<!-- [root] output.bastion_eip -->
<g id="node10" class="node">
<title>[root] output.bastion_eip</title>
<polygon fill="none" stroke="black" points="1034,-468 891,-468 891,-432 1040,-432 1040,-462 1034,-468"/>
<polyline fill="none" stroke="black" points="1034,-468 1034,-462 "/>
<polyline fill="none" stroke="black" points="1040,-462 1034,-462 "/>
<text text-anchor="middle" x="965.5" y="-446.3" font-family="Times,serif" font-size="14.00">output.bastion_eip</text>
</g>
<!-- [root] output.bastion_eip&#45;&gt;[root] aws_eip.bastion_eip (expand) -->
<g id="edge23" class="edge">
<title>[root] output.bastion_eip&#45;&gt;[root] aws_eip.bastion_eip (expand)</title>
<path fill="none" stroke="black" d="M965.5,-431.7C965.5,-423.98 965.5,-414.71 965.5,-406.11"/>
<polygon fill="black" stroke="black" points="969,-406.1 965.5,-396.1 962,-406.1 969,-406.1"/>
</g>
<!-- [root] var.aws_access_key -->
<g id="node12" class="node">
<title>[root] var.aws_access_key</title>
<polygon fill="none" stroke="black" points="443,-36 294,-36 294,0 449,0 449,-30 443,-36"/>
<polyline fill="none" stroke="black" points="443,-36 443,-30 "/>
<polyline fill="none" stroke="black" points="449,-30 443,-30 "/>
<text text-anchor="middle" x="371.5" y="-14.3" font-family="Times,serif" font-size="14.00">var.aws_access_key</text>
</g>
<!-- [root] provider[&quot;registry.terraform.io/hashicorp/aws&quot;]&#45;&gt;[root] var.aws_access_key -->
<g id="edge26" class="edge">
<title>[root] provider[&quot;registry.terraform.io/hashicorp/aws&quot;]&#45;&gt;[root] var.aws_access_key</title>
<path fill="none" stroke="black" d="M494.43,-73.81C472.38,-63.98 443.35,-51.03 419.04,-40.19"/>
<polygon fill="black" stroke="black" points="420.19,-36.88 409.63,-36 417.34,-43.27 420.19,-36.88"/>
</g>
<!-- [root] var.aws_region -->
<g id="node18" class="node">
<title>[root] var.aws_region</title>
<polygon fill="none" stroke="black" points="584,-36 467,-36 467,0 590,0 590,-30 584,-36"/>
<polyline fill="none" stroke="black" points="584,-36 584,-30 "/>
<polyline fill="none" stroke="black" points="590,-30 584,-30 "/>
<text text-anchor="middle" x="528.5" y="-14.3" font-family="Times,serif" font-size="14.00">var.aws_region</text>
</g>
<!-- [root] provider[&quot;registry.terraform.io/hashicorp/aws&quot;]&#45;&gt;[root] var.aws_region -->
<g id="edge27" class="edge">
<title>[root] provider[&quot;registry.terraform.io/hashicorp/aws&quot;]&#45;&gt;[root] var.aws_region</title>
<path fill="none" stroke="black" d="M528.5,-71.7C528.5,-63.98 528.5,-54.71 528.5,-46.11"/>
<polygon fill="black" stroke="black" points="532,-46.1 528.5,-36.1 525,-46.1 532,-46.1"/>
</g>
<!-- [root] var.aws_secret_key -->
<g id="node19" class="node">
<title>[root] var.aws_secret_key</title>
<polygon fill="none" stroke="black" points="755,-36 608,-36 608,0 761,0 761,-30 755,-36"/>
<polyline fill="none" stroke="black" points="755,-36 755,-30 "/>
<polyline fill="none" stroke="black" points="761,-30 755,-30 "/>
<text text-anchor="middle" x="684.5" y="-14.3" font-family="Times,serif" font-size="14.00">var.aws_secret_key</text>
</g>
<!-- [root] provider[&quot;registry.terraform.io/hashicorp/aws&quot;]&#45;&gt;[root] var.aws_secret_key -->
<g id="edge28" class="edge">
<title>[root] provider[&quot;registry.terraform.io/hashicorp/aws&quot;]&#45;&gt;[root] var.aws_secret_key</title>
<path fill="none" stroke="black" d="M562.35,-73.81C584.26,-63.98 613.11,-51.03 637.27,-40.19"/>
<polygon fill="black" stroke="black" points="638.92,-43.29 646.61,-36 636.05,-36.9 638.92,-43.29"/>
</g>
<!-- [root] meta.count&#45;boundary (EachMode fixup) -->
<g id="node23" class="node">
<title>[root] meta.count&#45;boundary (EachMode fixup)</title>
<ellipse fill="none" stroke="black" cx="1067.5" cy="-522" rx="222.86" ry="18"/>
<text text-anchor="middle" x="1067.5" y="-518.3" font-family="Times,serif" font-size="14.00">[root] meta.count&#45;boundary (EachMode fixup)</text>
</g>
<!-- [root] meta.count&#45;boundary (EachMode fixup)&#45;&gt;[root] aws_route_table_association.aws_net_routes (expand) -->
<g id="edge21" class="edge">
<title>[root] meta.count&#45;boundary (EachMode fixup)&#45;&gt;[root] aws_route_table_association.aws_net_routes (expand)</title>
<path fill="none" stroke="black" d="M1065.95,-503.93C1065.13,-483.78 1067.17,-450.65 1086.5,-432 1105.69,-413.49 1156.2,-401.35 1210.48,-393.42"/>
<polygon fill="black" stroke="black" points="1211.24,-396.85 1220.65,-391.99 1210.26,-389.92 1211.24,-396.85"/>
</g>
<!-- [root] meta.count&#45;boundary (EachMode fixup)&#45;&gt;[root] output.bastion_eip -->
<g id="edge22" class="edge">
<title>[root] meta.count&#45;boundary (EachMode fixup)&#45;&gt;[root] output.bastion_eip</title>
<path fill="none" stroke="black" d="M1042.81,-504.05C1029.63,-495.01 1013.21,-483.74 998.91,-473.93"/>
<polygon fill="black" stroke="black" points="1000.54,-470.8 990.32,-468.03 996.58,-476.58 1000.54,-470.8"/>
</g>
<!-- [root] provider[&quot;registry.terraform.io/hashicorp/aws&quot;] (close) -->
<g id="node24" class="node">
<title>[root] provider[&quot;registry.terraform.io/hashicorp/aws&quot;] (close)</title>
<ellipse fill="none" stroke="black" cx="1387.5" cy="-450" rx="291.65" ry="18"/>
<text text-anchor="middle" x="1387.5" y="-446.3" font-family="Times,serif" font-size="14.00">[root] provider[&quot;registry.terraform.io/hashicorp/aws&quot;] (close)</text>
</g>
<!-- [root] provider[&quot;registry.terraform.io/hashicorp/aws&quot;] (close)&#45;&gt;[root] aws_eip.bastion_eip (expand) -->
<g id="edge24" class="edge">
<title>[root] provider[&quot;registry.terraform.io/hashicorp/aws&quot;] (close)&#45;&gt;[root] aws_eip.bastion_eip (expand)</title>
<path fill="none" stroke="black" d="M1290.95,-432.98C1219.87,-421.19 1123.95,-405.28 1054.68,-393.79"/>
<polygon fill="black" stroke="black" points="1055.1,-390.31 1044.66,-392.13 1053.95,-397.22 1055.1,-390.31"/>
</g>
<!-- [root] provider[&quot;registry.terraform.io/hashicorp/aws&quot;] (close)&#45;&gt;[root] aws_route_table_association.aws_net_routes (expand) -->
<g id="edge25" class="edge">
<title>[root] provider[&quot;registry.terraform.io/hashicorp/aws&quot;] (close)&#45;&gt;[root] aws_route_table_association.aws_net_routes (expand)</title>
<path fill="none" stroke="black" d="M1387.5,-431.7C1387.5,-423.98 1387.5,-414.71 1387.5,-406.11"/>
<polygon fill="black" stroke="black" points="1391,-406.1 1387.5,-396.1 1384,-406.1 1391,-406.1"/>
</g>
<!-- [root] root -->
<g id="node25" class="node">
<title>[root] root</title>
<ellipse fill="none" stroke="black" cx="1192.5" cy="-594" rx="58.49" ry="18"/>
<text text-anchor="middle" x="1192.5" y="-590.3" font-family="Times,serif" font-size="14.00">[root] root</text>
</g>
<!-- [root] root&#45;&gt;[root] meta.count&#45;boundary (EachMode fixup) -->
<g id="edge29" class="edge">
<title>[root] root&#45;&gt;[root] meta.count&#45;boundary (EachMode fixup)</title>
<path fill="none" stroke="black" d="M1165.68,-577.98C1148.47,-568.34 1125.82,-555.66 1106.61,-544.9"/>
<polygon fill="black" stroke="black" points="1108.22,-541.79 1097.78,-539.96 1104.8,-547.9 1108.22,-541.79"/>
</g>
<!-- [root] root&#45;&gt;[root] provider[&quot;registry.terraform.io/hashicorp/aws&quot;] (close) -->
<g id="edge30" class="edge">
<title>[root] root&#45;&gt;[root] provider[&quot;registry.terraform.io/hashicorp/aws&quot;] (close)</title>
<path fill="none" stroke="black" d="M1227.39,-579.23C1249.14,-569.82 1277.15,-556.14 1299.5,-540 1325.24,-521.41 1350.27,-495.04 1367.01,-475.84"/>
<polygon fill="black" stroke="black" points="1369.8,-477.96 1373.65,-468.09 1364.49,-473.4 1369.8,-477.96"/>
</g>
</g>
</svg>
